<mxfile host="65bd71144e">
    <diagram id="syVkfWU1FalwgMXl7jdx" name="Страница 1">
        <mxGraphModel dx="1118" dy="616" grid="1" gridSize="10" guides="1" tooltips="1" connect="1" arrows="1" fold="1" page="1" pageScale="1" pageWidth="827" pageHeight="1169" math="0" shadow="0">
            <root>
                <mxCell id="0"/>
                <mxCell id="1" parent="0"/>
                <mxCell id="2" style="edgeStyle=none;html=1;startArrow=none;" edge="1" parent="1" source="7">
                    <mxGeometry relative="1" as="geometry">
                        <mxPoint x="140" y="240" as="targetPoint"/>
                    </mxGeometry>
                </mxCell>
                <mxCell id="3" style="edgeStyle=none;html=1;entryX=0.5;entryY=0;entryDx=0;entryDy=0;" edge="1" parent="1" source="4" target="11">
                    <mxGeometry relative="1" as="geometry">
                        <mxPoint x="140" y="120" as="targetPoint"/>
                    </mxGeometry>
                </mxCell>
                <mxCell id="4" value="CreateAndFillArray&lt;br&gt;(n)" style="shape=process;whiteSpace=wrap;html=1;backgroundOutline=1;fillColor=#60a917;fontColor=#ffffff;strokeColor=#2D7600;" vertex="1" parent="1">
                    <mxGeometry x="80" y="40" width="160" height="40" as="geometry"/>
                </mxCell>
                <mxCell id="5" style="edgeStyle=none;html=1;entryX=0.5;entryY=0;entryDx=0;entryDy=0;" edge="1" parent="1" source="7" target="9">
                    <mxGeometry relative="1" as="geometry">
                        <mxPoint x="140" y="280" as="targetPoint"/>
                    </mxGeometry>
                </mxCell>
                <mxCell id="6" style="edgeStyle=none;html=1;" edge="1" parent="1" source="7">
                    <mxGeometry relative="1" as="geometry">
                        <mxPoint x="280" y="220" as="targetPoint"/>
                    </mxGeometry>
                </mxCell>
                <mxCell id="7" value="i,0,len" style="shape=hexagon;perimeter=hexagonPerimeter2;whiteSpace=wrap;html=1;fixedSize=1;fillColor=#6a00ff;fontColor=#ffffff;strokeColor=#3700CC;" vertex="1" parent="1">
                    <mxGeometry x="80" y="200" width="160" height="40" as="geometry"/>
                </mxCell>
                <mxCell id="8" style="edgeStyle=none;html=1;" edge="1" parent="1" source="9">
                    <mxGeometry relative="1" as="geometry">
                        <mxPoint x="160" y="360" as="targetPoint"/>
                    </mxGeometry>
                </mxCell>
                <mxCell id="9" value="array[i] = Random(0,99)" style="rounded=0;whiteSpace=wrap;html=1;fillColor=#a20025;fontColor=#ffffff;strokeColor=#6F0000;" vertex="1" parent="1">
                    <mxGeometry x="80" y="280" width="160" height="40" as="geometry"/>
                </mxCell>
                <mxCell id="10" style="edgeStyle=none;html=1;entryX=0.5;entryY=0;entryDx=0;entryDy=0;" edge="1" parent="1" source="11" target="7">
                    <mxGeometry relative="1" as="geometry"/>
                </mxCell>
                <mxCell id="11" value="new array(n)&lt;br&gt;len = array.length" style="shape=parallelogram;perimeter=parallelogramPerimeter;whiteSpace=wrap;html=1;fixedSize=1;" vertex="1" parent="1">
                    <mxGeometry x="80" y="120" width="160" height="40" as="geometry"/>
                </mxCell>
                <mxCell id="12" value="" style="endArrow=classic;html=1;" edge="1" parent="1">
                    <mxGeometry width="50" height="50" relative="1" as="geometry">
                        <mxPoint x="160" y="360" as="sourcePoint"/>
                        <mxPoint x="40" y="360" as="targetPoint"/>
                    </mxGeometry>
                </mxCell>
                <mxCell id="13" value="" style="endArrow=classic;html=1;" edge="1" parent="1">
                    <mxGeometry width="50" height="50" relative="1" as="geometry">
                        <mxPoint x="40" y="360" as="sourcePoint"/>
                        <mxPoint x="40" y="220" as="targetPoint"/>
                    </mxGeometry>
                </mxCell>
                <mxCell id="14" value="" style="endArrow=classic;html=1;" edge="1" parent="1">
                    <mxGeometry width="50" height="50" relative="1" as="geometry">
                        <mxPoint x="40" y="220" as="sourcePoint"/>
                        <mxPoint x="80" y="220" as="targetPoint"/>
                    </mxGeometry>
                </mxCell>
                <mxCell id="15" value="" style="endArrow=classic;html=1;" edge="1" parent="1">
                    <mxGeometry width="50" height="50" relative="1" as="geometry">
                        <mxPoint x="280" y="220" as="sourcePoint"/>
                        <mxPoint x="280" y="400" as="targetPoint"/>
                    </mxGeometry>
                </mxCell>
                <mxCell id="16" value="" style="endArrow=classic;html=1;" edge="1" parent="1">
                    <mxGeometry width="50" height="50" relative="1" as="geometry">
                        <mxPoint x="280" y="400" as="sourcePoint"/>
                        <mxPoint x="160" y="400" as="targetPoint"/>
                    </mxGeometry>
                </mxCell>
                <mxCell id="17" value="" style="endArrow=classic;html=1;" edge="1" parent="1">
                    <mxGeometry width="50" height="50" relative="1" as="geometry">
                        <mxPoint x="160" y="400" as="sourcePoint"/>
                        <mxPoint x="160" y="440" as="targetPoint"/>
                    </mxGeometry>
                </mxCell>
                <mxCell id="18" value="return array" style="shape=parallelogram;perimeter=parallelogramPerimeter;whiteSpace=wrap;html=1;fixedSize=1;fillColor=#d80073;fontColor=#ffffff;strokeColor=#A50040;" vertex="1" parent="1">
                    <mxGeometry x="80" y="440" width="160" height="40" as="geometry"/>
                </mxCell>
                <mxCell id="37" style="edgeStyle=none;html=1;entryX=0.5;entryY=0;entryDx=0;entryDy=0;" edge="1" parent="1" source="38">
                    <mxGeometry relative="1" as="geometry">
                        <mxPoint x="440" y="120.00000000000023" as="targetPoint"/>
                    </mxGeometry>
                </mxCell>
                <mxCell id="38" value="PrintArrayToString&lt;br&gt;(array)" style="shape=process;whiteSpace=wrap;html=1;backgroundOutline=1;fillColor=#60a917;fontColor=#ffffff;strokeColor=#2D7600;" vertex="1" parent="1">
                    <mxGeometry x="360" y="40" width="160" height="40" as="geometry"/>
                </mxCell>
                <mxCell id="39" value="" style="edgeStyle=none;html=1;" edge="1" parent="1" source="40">
                    <mxGeometry relative="1" as="geometry">
                        <mxPoint x="680" y="120" as="targetPoint"/>
                    </mxGeometry>
                </mxCell>
                <mxCell id="40" value="Begin" style="rounded=1;whiteSpace=wrap;html=1;fillColor=#e3c800;fontColor=#000000;strokeColor=#B09500;" vertex="1" parent="1">
                    <mxGeometry x="600" y="40" width="160" height="40" as="geometry"/>
                </mxCell>
                <mxCell id="41" style="edgeStyle=none;html=1;" edge="1" parent="1" source="42">
                    <mxGeometry relative="1" as="geometry">
                        <mxPoint x="680" y="200" as="targetPoint"/>
                    </mxGeometry>
                </mxCell>
                <mxCell id="42" value="a = 6, diff = 0" style="rounded=0;whiteSpace=wrap;html=1;fillColor=#a20025;fontColor=#ffffff;strokeColor=#6F0000;" vertex="1" parent="1">
                    <mxGeometry x="600" y="120" width="160" height="40" as="geometry"/>
                </mxCell>
                <mxCell id="43" style="edgeStyle=none;html=1;" edge="1" parent="1" source="44">
                    <mxGeometry relative="1" as="geometry">
                        <mxPoint x="680" y="280" as="targetPoint"/>
                    </mxGeometry>
                </mxCell>
                <mxCell id="44" value="array = CreateAndFillArray (n)" style="shape=process;whiteSpace=wrap;html=1;backgroundOutline=1;fillColor=#60a917;fontColor=#ffffff;strokeColor=#2D7600;" vertex="1" parent="1">
                    <mxGeometry x="600" y="200" width="160" height="40" as="geometry"/>
                </mxCell>
                <mxCell id="45" style="edgeStyle=none;html=1;" edge="1" parent="1" source="46">
                    <mxGeometry relative="1" as="geometry">
                        <mxPoint x="680" y="360" as="targetPoint"/>
                    </mxGeometry>
                </mxCell>
                <mxCell id="46" value="diff = CountEvenArray(array)" style="shape=process;whiteSpace=wrap;html=1;backgroundOutline=1;fillColor=#60a917;fontColor=#ffffff;strokeColor=#2D7600;" vertex="1" parent="1">
                    <mxGeometry x="600" y="280" width="160" height="40" as="geometry"/>
                </mxCell>
                <mxCell id="47" style="edgeStyle=none;html=1;" edge="1" parent="1" source="48">
                    <mxGeometry relative="1" as="geometry">
                        <mxPoint x="680" y="440" as="targetPoint"/>
                    </mxGeometry>
                </mxCell>
                <mxCell id="48" value="PrintArrayToString&lt;br&gt;(array)" style="shape=process;whiteSpace=wrap;html=1;backgroundOutline=1;fillColor=#60a917;fontColor=#ffffff;strokeColor=#2D7600;" vertex="1" parent="1">
                    <mxGeometry x="600" y="360" width="160" height="40" as="geometry"/>
                </mxCell>
                <mxCell id="49" style="edgeStyle=none;html=1;" edge="1" parent="1" source="50">
                    <mxGeometry relative="1" as="geometry">
                        <mxPoint x="680" y="600" as="targetPoint"/>
                    </mxGeometry>
                </mxCell>
                <mxCell id="50" value="diff" style="shape=document;whiteSpace=wrap;html=1;boundedLbl=1;fillColor=#1ba1e2;fontColor=#ffffff;strokeColor=#006EAF;" vertex="1" parent="1">
                    <mxGeometry x="600" y="520" width="160" height="40" as="geometry"/>
                </mxCell>
                <mxCell id="51" value="End" style="rounded=1;whiteSpace=wrap;html=1;fillColor=#e3c800;fontColor=#000000;strokeColor=#B09500;" vertex="1" parent="1">
                    <mxGeometry x="600" y="600" width="160" height="40" as="geometry"/>
                </mxCell>
                <mxCell id="52" value="new array(n)&lt;br&gt;len = array.length" style="shape=parallelogram;perimeter=parallelogramPerimeter;whiteSpace=wrap;html=1;fixedSize=1;fillColor=#d80073;fontColor=#ffffff;strokeColor=#A50040;" vertex="1" parent="1">
                    <mxGeometry x="80" y="120" width="160" height="40" as="geometry"/>
                </mxCell>
                <mxCell id="53" value="return string" style="shape=parallelogram;perimeter=parallelogramPerimeter;whiteSpace=wrap;html=1;fixedSize=1;fillColor=#d80073;fontColor=#ffffff;strokeColor=#A50040;" vertex="1" parent="1">
                    <mxGeometry x="360" y="120" width="160" height="40" as="geometry"/>
                </mxCell>
                <mxCell id="54" style="edgeStyle=none;html=1;entryX=0.5;entryY=0;entryDx=0;entryDy=0;" edge="1" parent="1" source="55" target="50">
                    <mxGeometry relative="1" as="geometry"/>
                </mxCell>
                <mxCell id="55" value="array" style="shape=document;whiteSpace=wrap;html=1;boundedLbl=1;fillColor=#1ba1e2;fontColor=#ffffff;strokeColor=#006EAF;" vertex="1" parent="1">
                    <mxGeometry x="600" y="440" width="160" height="40" as="geometry"/>
                </mxCell>
                <mxCell id="58" style="edgeStyle=none;html=1;startArrow=none;" edge="1" parent="1" source="63">
                    <mxGeometry relative="1" as="geometry">
                        <mxPoint x="139" y="720" as="targetPoint"/>
                    </mxGeometry>
                </mxCell>
                <mxCell id="59" style="edgeStyle=none;html=1;entryX=0.5;entryY=0;entryDx=0;entryDy=0;" edge="1" parent="1" source="60" target="66">
                    <mxGeometry relative="1" as="geometry">
                        <mxPoint x="139" y="600" as="targetPoint"/>
                    </mxGeometry>
                </mxCell>
                <mxCell id="60" value="CalcMaxMinDiff(array)" style="shape=process;whiteSpace=wrap;html=1;backgroundOutline=1;fillColor=#60a917;fontColor=#ffffff;strokeColor=#2D7600;" vertex="1" parent="1">
                    <mxGeometry x="79" y="520" width="160" height="40" as="geometry"/>
                </mxCell>
                <mxCell id="61" style="edgeStyle=none;html=1;entryX=0.5;entryY=0;entryDx=0;entryDy=0;" edge="1" parent="1" source="63">
                    <mxGeometry relative="1" as="geometry">
                        <mxPoint x="159" y="760" as="targetPoint"/>
                    </mxGeometry>
                </mxCell>
                <mxCell id="62" style="edgeStyle=none;html=1;" edge="1" parent="1" source="63">
                    <mxGeometry relative="1" as="geometry">
                        <mxPoint x="480" y="700" as="targetPoint"/>
                    </mxGeometry>
                </mxCell>
                <mxCell id="63" value="i,0,len" style="shape=hexagon;perimeter=hexagonPerimeter2;whiteSpace=wrap;html=1;fixedSize=1;fillColor=#6a00ff;fontColor=#ffffff;strokeColor=#3700CC;" vertex="1" parent="1">
                    <mxGeometry x="79" y="680" width="160" height="40" as="geometry"/>
                </mxCell>
                <mxCell id="64" value="no" style="edgeStyle=none;html=1;entryX=0.5;entryY=0;entryDx=0;entryDy=0;" edge="1" parent="1" target="78">
                    <mxGeometry relative="1" as="geometry">
                        <mxPoint x="159" y="840" as="targetPoint"/>
                        <mxPoint x="159" y="800" as="sourcePoint"/>
                    </mxGeometry>
                </mxCell>
                <mxCell id="65" style="edgeStyle=none;html=1;entryX=0.5;entryY=0;entryDx=0;entryDy=0;" edge="1" parent="1" source="66" target="63">
                    <mxGeometry relative="1" as="geometry"/>
                </mxCell>
                <mxCell id="66" value="length = array.length&lt;br&gt;min = array[0]&lt;br&gt;max = array[0]" style="shape=parallelogram;perimeter=parallelogramPerimeter;whiteSpace=wrap;html=1;fixedSize=1;fillColor=#d80073;fontColor=#ffffff;strokeColor=#A50040;" vertex="1" parent="1">
                    <mxGeometry x="79" y="600" width="160" height="40" as="geometry"/>
                </mxCell>
                <mxCell id="67" value="" style="endArrow=classic;html=1;" edge="1" parent="1">
                    <mxGeometry width="50" height="50" relative="1" as="geometry">
                        <mxPoint x="39" y="1000" as="sourcePoint"/>
                        <mxPoint x="39" y="700" as="targetPoint"/>
                    </mxGeometry>
                </mxCell>
                <mxCell id="68" value="" style="endArrow=classic;html=1;" edge="1" parent="1">
                    <mxGeometry width="50" height="50" relative="1" as="geometry">
                        <mxPoint x="39" y="700" as="sourcePoint"/>
                        <mxPoint x="79" y="700" as="targetPoint"/>
                    </mxGeometry>
                </mxCell>
                <mxCell id="76" value="yes" style="edgeStyle=none;html=1;entryX=0;entryY=0.5;entryDx=0;entryDy=0;" edge="1" parent="1" source="73" target="75">
                    <mxGeometry relative="1" as="geometry"/>
                </mxCell>
                <mxCell id="73" value="array[i] &amp;gt; max?" style="rhombus;whiteSpace=wrap;html=1;fillColor=#0050ef;fontColor=#ffffff;strokeColor=#001DBC;" vertex="1" parent="1">
                    <mxGeometry x="79" y="760" width="160" height="40" as="geometry"/>
                </mxCell>
                <mxCell id="74" style="edgeStyle=none;html=1;" edge="1" parent="1">
                    <mxGeometry relative="1" as="geometry">
                        <mxPoint x="39" y="1000" as="targetPoint"/>
                        <mxPoint x="160" y="1000" as="sourcePoint"/>
                    </mxGeometry>
                </mxCell>
                <mxCell id="81" style="edgeStyle=none;html=1;" edge="1" parent="1" source="75">
                    <mxGeometry relative="1" as="geometry">
                        <mxPoint x="360" y="830" as="targetPoint"/>
                    </mxGeometry>
                </mxCell>
                <mxCell id="75" value="max = array[i]" style="rounded=0;whiteSpace=wrap;html=1;fillColor=#a20025;fontColor=#ffffff;strokeColor=#6F0000;" vertex="1" parent="1">
                    <mxGeometry x="280" y="760" width="160" height="40" as="geometry"/>
                </mxCell>
                <mxCell id="77" value="no" style="edgeStyle=none;html=1;" edge="1" parent="1">
                    <mxGeometry relative="1" as="geometry">
                        <mxPoint x="160" y="1000" as="targetPoint"/>
                        <mxPoint x="160" y="920" as="sourcePoint"/>
                    </mxGeometry>
                </mxCell>
                <mxCell id="80" value="yes" style="edgeStyle=none;html=1;entryX=0;entryY=0.5;entryDx=0;entryDy=0;" edge="1" parent="1" source="78" target="79">
                    <mxGeometry relative="1" as="geometry"/>
                </mxCell>
                <mxCell id="78" value="array[i] &amp;lt; min?" style="rhombus;whiteSpace=wrap;html=1;fillColor=#0050ef;fontColor=#ffffff;strokeColor=#001DBC;" vertex="1" parent="1">
                    <mxGeometry x="80" y="880" width="160" height="40" as="geometry"/>
                </mxCell>
                <mxCell id="79" value="min = array[i]" style="rounded=0;whiteSpace=wrap;html=1;fillColor=#a20025;fontColor=#ffffff;strokeColor=#6F0000;" vertex="1" parent="1">
                    <mxGeometry x="280" y="880" width="160" height="40" as="geometry"/>
                </mxCell>
                <mxCell id="82" value="" style="endArrow=classic;html=1;" edge="1" parent="1">
                    <mxGeometry width="50" height="50" relative="1" as="geometry">
                        <mxPoint x="360" y="830" as="sourcePoint"/>
                        <mxPoint x="160" y="830" as="targetPoint"/>
                    </mxGeometry>
                </mxCell>
                <mxCell id="83" style="edgeStyle=none;html=1;" edge="1" parent="1">
                    <mxGeometry relative="1" as="geometry">
                        <mxPoint x="360" y="950" as="targetPoint"/>
                        <mxPoint x="360" y="920" as="sourcePoint"/>
                    </mxGeometry>
                </mxCell>
                <mxCell id="84" value="" style="endArrow=classic;html=1;" edge="1" parent="1">
                    <mxGeometry width="50" height="50" relative="1" as="geometry">
                        <mxPoint x="360" y="950" as="sourcePoint"/>
                        <mxPoint x="160" y="950" as="targetPoint"/>
                    </mxGeometry>
                </mxCell>
                <mxCell id="85" value="" style="endArrow=classic;html=1;" edge="1" parent="1">
                    <mxGeometry width="50" height="50" relative="1" as="geometry">
                        <mxPoint x="480" y="700" as="sourcePoint"/>
                        <mxPoint x="480" y="1000" as="targetPoint"/>
                    </mxGeometry>
                </mxCell>
                <mxCell id="86" value="return max-min" style="shape=parallelogram;perimeter=parallelogramPerimeter;whiteSpace=wrap;html=1;fixedSize=1;fillColor=#d80073;fontColor=#ffffff;strokeColor=#A50040;" vertex="1" parent="1">
                    <mxGeometry x="390" y="1000" width="160" height="40" as="geometry"/>
                </mxCell>
            </root>
        </mxGraphModel>
    </diagram>
</mxfile>